<?xml version="1.0" encoding="iso-8859-1"?>
<!-- Uploaded to: SVG Repo, www.svgrepo.com, Generator: SVG Repo Mixer Tools -->
<svg fill="#000000" height="800px" width="800px" version="1.1" id="Capa_1" xmlns="http://www.w3.org/2000/svg" xmlns:xlink="http://www.w3.org/1999/xlink" 
	 viewBox="0 0 429.599 429.599" xml:space="preserve">
<path id="XMLID_777_" d="M282.302,63.36L221.871,2.928c-3.906-3.904-10.236-3.904-14.143,0L147.297,63.36
	c-1.875,1.876-2.929,4.419-2.929,7.071v237.537c0,2.652,1.054,5.195,2.929,7.071l57.503,57.503v47.057c0,5.522,4.478,10,10,10
	s10-4.478,10-10v-47.057l57.503-57.503c1.875-1.876,2.929-4.419,2.929-7.071V70.431C285.231,67.779,284.177,65.236,282.302,63.36z
	 M204.8,344.257l-40.432-40.432v-56.563l40.432,40.433V344.257z M204.8,259.41l-40.432-40.432v-61.721L204.8,197.69V259.41z
	 M265.231,303.826L224.8,344.257v-56.563l40.432-40.433V303.826z M265.231,218.978L224.8,259.41v-61.72l40.432-40.433V218.978z
	 M265.231,128.973L224.8,169.405V70.647c0-5.522-4.478-10-10-10s-10,4.478-10,10v98.758l-40.432-40.432V74.574L214.8,24.142
	l50.432,50.432V128.973z"/>
</svg>