<?xml version="1.0" encoding="iso-8859-1"?>
<!-- Uploaded to: SVG Repo, www.svgrepo.com, Generator: SVG Repo Mixer Tools -->
<!DOCTYPE svg PUBLIC "-//W3C//DTD SVG 1.1//EN" "http://www.w3.org/Graphics/SVG/1.1/DTD/svg11.dtd">
<svg fill="#000000" height="800px" width="800px" version="1.1" id="Capa_1" xmlns="http://www.w3.org/2000/svg" xmlns:xlink="http://www.w3.org/1999/xlink" 
	 viewBox="0 0 484.191 484.191" xml:space="preserve">
<g>
	<path d="M377.015,271.181l-43.603-13.004l-15.468-4.614c-3.815,4.785-7.818,9.141-11.932,13.153l22.584,6.741
		c-12.668,28.088-46.341,48.279-86.189,48.279c-39.943,0-73.678-20.27-86.283-48.436l22.068-6.583
		c-4.129-4.012-8.118-8.374-11.949-13.153l-14.889,4.442l-44.182,13.175c-13.23,3.941-22.285,16.093-22.285,29.887v25.915
		c0,86.822,70.376,157.207,157.207,157.207c86.83,0,157.207-70.385,157.207-157.207v-25.915
		C399.302,287.275,390.248,275.123,377.015,271.181z"/>
	<path d="M344.361,126.262c2.554-17.982,0.871-38.726-1.596-53.63c-5.426-32.835-18.453-55.942-18.453-55.942l-6.084,25.516
		l-0.596,2.51c-0.046-1.024-0.203-2.158-0.311-3.261c-1.456-13.919-7.694-32.772-7.694-32.772
		c-14.014,6.67-37.002,6.006-37.002,6.006c6.363-4.676,22.988-9.337,22.988-9.337C254.201-7.7,227.721,5.953,214.837,16.228
		c-2.785,2.229-4.958,4.27-6.476,5.873l4.723-5.451l9.807-11.299c-19.768,1.939-34.189,15.295-42.947,26.204
		c-6.301,7.867-9.773,14.498-9.773,14.498l1.689-8.688l3.643-18.674c-13.59,10.87-21.801,26.673-26.805,42.79
		c-7.414,23.842-9.153,53.707-9.06,64.87c-7.395,3.444-12.948,10.584-15.432,19.959c-2.456,9.329-1.814,20.206,1.814,30.614
		c5.724,16.436,17.905,28.517,31.168,31.224c10.464,22.427,26.509,45.12,46.59,58.757l1.909,7.882
		c2.563,10.581,12.041,18.033,22.926,18.033h28.965c10.885,0,20.363-7.452,22.927-18.033l2.33-9.633
		c18.909-13.763,34.11-35.439,44.136-56.928c13.059-2.558,25.445-14.709,31.231-31.302
		C365.845,154.886,359.754,133.197,344.361,126.262z M343.08,171.661c-4.772,13.669-14.469,21.042-21.348,21.042
		c-0.063,0-0.111,0-0.157,0c-3.176,0-6.068,1.885-7.335,4.809c-6.038,13.842-14.498,27.933-24.601,39.646l0.532-2.221
		c0.25-1.094-0.203-2.235-1.143-2.838c-0.954-0.61-2.174-0.556-3.065,0.133l-19.738,15.428c-2.157,1.688-5.051,2.087-7.585,1.056
		c-2.533-1.033-4.315-3.339-4.677-6.052l-1.814-13.614c-0.188-1.315-1.297-2.292-2.625-2.292h-12.857
		c-1.329,0-2.439,0.977-2.627,2.292l-1.814,13.614c-0.359,2.713-2.143,5.019-4.676,6.052c-2.533,1.031-5.428,0.632-7.584-1.056
		l-19.738-15.428c-0.891-0.689-2.111-0.743-3.066-0.133c-0.938,0.602-1.391,1.744-1.141,2.838l1.314,5.396
		c-11.387-12.245-20.801-27.72-27.386-42.82c-1.267-2.924-4.489-4.809-7.679-4.809c-6.693,0-16.373-7.373-21.129-21.042
		c-2.549-7.335-3.08-15.084-1.454-21.263c0.798-2.978,2.8-8.218,7.46-9.837c0.5-0.172,1.486-0.273,1.97-0.32
		c3.958-0.383,7.038-3.613,7.225-7.585c0.174-3.699,0.923-7.202,1.502-10.768c16.188-45.823,52.986-50.476,52.986-50.476
		c-7.381,17.352-19.314,24.687-19.314,24.687c39.363-16.015,51.625-33.367,51.625-33.367c26.197,36.37,62.293,52.15,83.139,58.617
		c0.611,3.738,1.378,7.421,1.565,11.308c0.188,3.972,3.27,7.202,7.227,7.585c0.483,0.047,1.471,0.148,1.986,0.32
		C344.142,143.033,348.364,156.42,343.08,171.661z"/>
</g>
</svg>